{
    "asset": {
        "copyright": "2020 (c) Adobe Inc.",
        "generator": "Adobe Dimension - c07c1086882a7bcae137810da574e69379bf2af7",
        "version": "2.0"
    },
    "accessors": [
        {
            "bufferView": 0,
            "componentType": 5126,
            "count": 5463,
            "type": "VEC3",
            "max": [
                0.06042899936437607,
                0.06042499840259552,
                0.3786439895629883
            ],
            "min": [
                -0.06042899936437607,
                -0.06042499840259552,
                -0.00006600000051548705
            ]
        },
        {
            "bufferView": 1,
            "componentType": 5126,
            "count": 5463,
            "type": "VEC3"
        },
        {
            "bufferView": 2,
            "componentType": 5126,
            "count": 5463,
            "type": "VEC2"
        },
        {
            "bufferView": 3,
            "componentType": 5125,
            "count": 31536,
            "type": "SCALAR",
            "max": [
                5462.0
            ],
            "min": [
                0.0
            ]
        }
    ],
    "bufferViews": [
        {
            "buffer": 0,
            "byteOffset": 0,
            "byteLength": 65556,
            "target": 34962
        },
        {
            "buffer": 0,
            "byteOffset": 65556,
            "byteLength": 65556,
            "target": 34962
        },
        {
            "buffer": 0,
            "byteOffset": 131112,
            "byteLength": 43704,
            "target": 34962
        },
        {
            "buffer": 0,
            "byteOffset": 174816,
            "byteLength": 126144,
            "target": 34963
        }
    ],
    "buffers": [
        {
            "byteLength": 300960,
            "uri": "pin_binary.bin"
        }
    ],
    "cameras": [
        {
            "perspective": {
                "znear": 0.000010000000656873454,
                "yfov": 0.6024156808853149,
                "zfar": 2.0,
                "aspectRatio": 1.3333333730697632
            },
            "type": "perspective",
            "name": "render_camera"
        }
    ],
    "images": [
        {
            "name": "10492_Bowling-Pin_v1_diffuse",
            "uri": "10492_Bowling-Pin_v1_diffuse.jpg",
            "mimeType": "image/jpeg"
        }
    ],
    "materials": [
        {
            "pbrMetallicRoughness": {
                "baseColorTexture": {
                    "index": 0
                },
                "metallicFactor": 0.0,
                "roughnessFactor": 0.6000000238418579
            },
            "name": "Standard_7",
            "doubleSided": true
        }
    ],
    "meshes": [
        {
            "name": "objCylinder01",
            "primitives": [
                {
                    "attributes": {
                        "POSITION": 0,
                        "NORMAL": 1,
                        "TEXCOORD_0": 2
                    },
                    "indices": 3,
                    "material": 0
                }
            ]
        }
    ],
    "nodes": [
        {
            "translation": [
                0.5156139731407166,
                0.2657626271247864,
                0.33621862530708315
            ],
            "rotation": [
                -0.12059047073125839,
                0.379409521818161,
                0.04995020851492882,
                0.9159756302833557
            ],
            "scale": [
                1.0,
                1.0,
                0.9999999403953552
            ],
            "camera": 0,
            "name": "render_camera_n3d"
        },
        {
            "translation": [
                0.003989072982221842,
                0.0014607858611270786,
                0.006572170183062553
            ],
            "rotation": [
                -0.5997908115386963,
                0.41046425700187685,
                0.4069642126560211,
                0.5533084273338318
            ],
            "scale": [
                1.000000238418579,
                1.0000003576278687,
                0.9999999403953552
            ],
            "mesh": 0,
            "name": "objCylinder01"
        }
    ],
    "samplers": [
        {}
    ],
    "scenes": [
        {
            "nodes": [
                0,
                1
            ],
            "name": "scene"
        }
    ],
    "textures": [
        {
            "name": "Standard_7::baseColor::image",
            "sampler": 0,
            "source": 0
        }
    ],
    "scene": 0
}